<svg width="160" height="253" xmlns="http://www.w3.org/2000/svg">
 <defs>
  <linearGradient y2="1" x2="0.78636" y1="0" x1="0.04545" id="paint0_linear">
   <stop stop-color="#F004E1"/>
   <stop stop-color="#FF226C" offset="0.73777"/>
   <stop stop-color="#FF6655" offset="1"/>
  </linearGradient>
 </defs>
 <g>
  <title>background</title>
  <rect fill="none" id="canvas_background" height="255" width="162" y="-1" x="-1"/>
 </g>
 <g>
  <title>Layer 1</title>
  <g id="download_buttons">
   <g id="download_apk">
    <rect fill="black" rx="5" height="50" width="160" id="Rectangle"/>
    <g id="Android">
     <path fill="white" d="m31.4653,12.1511l-0.3445,0.5067c2.6143,1.1866 4.3841,3.4339 4.3841,6.0057l-17.2593,0c0,-2.5718 1.7698,-4.8191 4.386,-6.0057l-0.3465,-0.5067l-0.3446,-0.4994l-0.7678,-1.1228c-0.0936,-0.1385 -0.0543,-0.3244 0.0862,-0.4155c0.1423,-0.0912 0.3333,-0.0547 0.4288,0.0838l0.824,1.203l0.3465,0.5048l0.3502,0.514c1.1143,-0.421 2.3578,-0.6561 3.6668,-0.6561c1.311,0 2.5526,0.2351 3.6669,0.6561l0.3521,-0.514l1.1723,-1.7078c0.0918,-0.1385 0.2847,-0.1768 0.4251,-0.0838c0.1423,0.0911 0.1817,0.277 0.0862,0.4155l-0.7679,1.1228l-0.3446,0.4994zm-13.2197,7.7119l0.133,0l17.1263,0l0,13.1999c0,1.048 -0.8727,1.901 -1.9514,1.901l-1.4102,0c0.0487,0.1586 0.0768,0.3245 0.0768,0.4994l0,3.8003c0,0.9934 -0.8297,1.799 -1.8522,1.799c-1.0206,0 -1.8484,-0.8056 -1.8484,-1.799l0,-3.8003c0,-0.1749 0.0262,-0.3408 0.073,-0.4994l-3.4346,0c0.0468,0.1586 0.0749,0.3245 0.0749,0.4994l0,3.8003c0,0.9934 -0.8296,1.799 -1.8502,1.799c-1.0207,0 -1.8503,-0.8056 -1.8503,-1.799l0,-3.8003c0,-0.1749 0.0262,-0.3408 0.0749,-0.4994l-1.4083,0c-1.0787,0 -1.9533,-0.853 -1.9533,-1.901l0,-13.1999zm-3.0828,0c-1.0225,0 -1.8503,0.8057 -1.8503,1.799l0,7.7008c0,0.9934 0.8278,1.799 1.8503,1.799c1.0206,0 1.8484,-0.8056 1.8484,-1.799l0,-7.7008c0,-0.9933 -0.8278,-1.799 -1.8484,-1.799zm21.576,1.799c0,-0.9933 0.8277,-1.799 1.8503,-1.799c1.0206,0 1.8484,0.8057 1.8484,1.799l0,7.7008c0,0.9934 -0.8278,1.799 -1.8484,1.799c-1.0226,0 -1.8503,-0.8056 -1.8503,-1.799l0,-7.7008zm-15.063,-5.3991c-0.5112,0 -0.9249,-0.4027 -0.9249,-0.9002c0,-0.4975 0.4137,-0.8983 0.9249,-0.8983c0.5111,0 0.9249,0.4008 0.9249,0.8983c0,0.4975 -0.4138,0.9002 -0.9249,0.9002zm6.4728,-0.9002c0,0.4975 0.4137,0.9002 0.9249,0.9002c0.5111,0 0.9249,-0.4027 0.9249,-0.9002c0,-0.4975 -0.4138,-0.8983 -0.9249,-0.8983c-0.5112,0 -0.9249,0.4008 -0.9249,0.8983z" clip-rule="evenodd" fill-rule="evenodd" id="Subtract"/>
    </g>
    <g id="Group 2">
     <path fill="white" d="m50.6592,17l0,-5.9985l2.1137,0c0.4717,0 0.8804,0.0732 1.2261,0.2197c0.3487,0.1435 0.627,0.3501 0.835,0.6196c0.208,0.2696 0.3603,0.583 0.457,0.9404c0.0996,0.3545 0.1494,0.7574 0.1494,1.2085c0,0.3575 -0.0293,0.6856 -0.0879,0.9844c-0.0586,0.2959 -0.1552,0.5713 -0.29,0.8262c-0.1348,0.2519 -0.3047,0.4658 -0.5098,0.6416c-0.2021,0.1758 -0.4541,0.3135 -0.7558,0.4131c-0.3018,0.0967 -0.6431,0.145 -1.024,0.145l-2.1137,0zm1.0635,-0.8877l0.9228,0c0.5684,0 0.9932,-0.1685 1.2744,-0.5054c0.2842,-0.3369 0.4263,-0.8701 0.4263,-1.5996c0,-0.3252 -0.0293,-0.6123 -0.0879,-0.8613c-0.0586,-0.249 -0.1523,-0.4702 -0.2812,-0.6636c-0.129,-0.1933 -0.3062,-0.3413 -0.5318,-0.4438c-0.2226,-0.1026 -0.4892,-0.1538 -0.7998,-0.1538l-0.9228,0l0,4.2275zm5.2112,-1.6875l0,-0.7998c0,-0.8496 0.2256,-1.519 0.6767,-2.0083c0.4512,-0.4893 1.0664,-0.7339 1.8457,-0.7339c0.7793,0 1.3931,0.2446 1.8413,0.7339c0.4483,0.4893 0.6724,1.1587 0.6724,2.0083l0,0.7998c0,0.8438 -0.2256,1.5044 -0.6768,1.9819c-0.4482,0.4746 -1.0649,0.712 -1.8501,0.712c-0.7822,0 -1.396,-0.2374 -1.8413,-0.712c-0.4453,-0.4746 -0.6679,-1.1352 -0.6679,-1.9819zm1.0722,0.0044c0,0.5859 0.1319,1.0312 0.3955,1.3359c0.2637,0.3018 0.6138,0.4527 1.0503,0.4527c0.4336,0 0.7823,-0.1509 1.0459,-0.4527c0.2637,-0.3047 0.3955,-0.75 0.3955,-1.3359l0,-0.813c0,-0.5889 -0.1333,-1.0415 -0.3999,-1.3579c-0.2636,-0.3164 -0.6108,-0.4746 -1.0415,-0.4746c-0.4336,0 -0.7837,0.1582 -1.0503,0.4746c-0.2636,0.3164 -0.3955,0.769 -0.3955,1.3579l0,0.813zm5.1453,-3.4277l1.169,0l0.9668,4.4033l0.0395,0l1.0987,-4.4033l0.9624,0l1.0942,4.4033l0.0439,0l0.9624,-4.4033l1.169,0l-1.604,5.9985l-0.9756,0l-1.1558,-4.3198l-0.0395,0l-1.1558,4.3198l-0.9756,0l-1.5996,-5.9985zm8.9246,5.9985l0,-5.9985l0.9185,0l2.7553,4.1967l0.0352,0l0,-4.1967l1.0107,0l0,5.9985l-0.9096,0l-2.7642,-4.21l-0.0307,0l0,4.21l-1.0152,0zm6.7669,0l0,-5.9985l1.0635,0l0,5.0844l2.6103,0l0,0.9141l-3.6738,0zm4.7542,-2.5752l0,-0.7998c0,-0.8496 0.2256,-1.519 0.6767,-2.0083c0.4512,-0.4893 1.0664,-0.7339 1.8457,-0.7339c0.7793,0 1.3931,0.2446 1.8413,0.7339c0.4483,0.4893 0.6724,1.1587 0.6724,2.0083l0,0.7998c0,0.8438 -0.2256,1.5044 -0.6768,1.9819c-0.4482,0.4746 -1.0649,0.712 -1.8501,0.712c-0.7822,0 -1.3959,-0.2374 -1.8413,-0.712c-0.4453,-0.4746 -0.6679,-1.1352 -0.6679,-1.9819zm1.0722,0.0044c0,0.5859 0.1319,1.0312 0.3955,1.3359c0.2637,0.3018 0.6138,0.4527 1.0503,0.4527c0.4336,0 0.7823,-0.1509 1.0459,-0.4527c0.2637,-0.3047 0.3955,-0.75 0.3955,-1.3359l0,-0.813c0,-0.5889 -0.1333,-1.0415 -0.3999,-1.3579c-0.2636,-0.3164 -0.6108,-0.4746 -1.0415,-0.4746c-0.4336,0 -0.7837,0.1582 -1.0503,0.4746c-0.2636,0.3164 -0.3955,0.769 -0.3955,1.3579l0,0.813zm5.0838,2.5708l2.0479,-5.9985l1.2085,0l2.0434,5.9985l-1.1382,0l-0.5097,-1.6172l-2.0699,0l-0.5097,1.6172l-1.0723,0zm1.8149,-2.4258l1.6084,0l-0.7822,-2.4961l-0.0395,0l-0.7867,2.4961zm4.9476,2.4258l0,-5.9985l2.1138,0c0.4716,0 0.8803,0.0732 1.226,0.2197c0.3486,0.1435 0.6266,0.3501 0.8346,0.6196c0.208,0.2696 0.361,0.583 0.457,0.9404c0.1,0.3545 0.15,0.7574 0.15,1.2085c0,0.3575 -0.029,0.6856 -0.088,0.9844c-0.059,0.2959 -0.155,0.5713 -0.29,0.8262c-0.135,0.2519 -0.305,0.4658 -0.51,0.6416c-0.202,0.1758 -0.454,0.3135 -0.7557,0.4131c-0.3018,0.0967 -0.6431,0.145 -1.0239,0.145l-2.1138,0zm1.0635,-0.8877l0.9228,0c0.5684,0 0.9932,-0.1685 1.2744,-0.5054c0.2847,-0.3369 0.4267,-0.8701 0.4267,-1.5996c0,-0.3252 -0.03,-0.6123 -0.088,-0.8613c-0.059,-0.249 -0.1526,-0.4702 -0.2815,-0.6636c-0.1289,-0.1933 -0.3062,-0.3413 -0.5318,-0.4438c-0.2226,-0.1026 -0.4892,-0.1538 -0.7998,-0.1538l-0.9228,0l0,4.2275zm7.3679,0.8877l2.048,-5.9985l1.209,0l2.043,5.9985l-1.138,0l-0.51,-1.6172l-2.07,0l-0.509,1.6172l-1.073,0zm1.815,-2.4258l1.609,0l-0.783,-2.4961l-0.039,0l-0.787,2.4961zm4.948,2.4258l0,-5.9985l2.338,0c0.612,0 1.097,0.1831 1.454,0.5493c0.358,0.3662 0.536,0.8364 0.536,1.4106c0,0.5772 -0.18,1.0459 -0.54,1.4063c-0.358,0.3603 -0.844,0.5405 -1.459,0.5405l-1.266,0l0,2.0918l-1.063,0zm1.063,-2.9443l0.769,0c0.475,0 0.829,-0.0791 1.064,-0.2373c0.234,-0.1612 0.351,-0.4468 0.351,-0.857c0,-0.3486 -0.095,-0.6181 -0.285,-0.8086c-0.191,-0.1904 -0.457,-0.2856 -0.8,-0.2856l-1.099,0l0,2.1885zm4.86,2.9443l0,-5.9985l1.063,0l0,2.7509l0.049,0l2.373,-2.7509l1.182,0l-2.167,2.5752l2.268,3.4233l-1.292,0l-1.758,-2.707l-0.655,0.7251l0,1.9819l-1.063,0zm8.357,-2.8345c0,-1.0547 0.209,-1.8633 0.628,-2.4258c0.422,-0.5654 0.991,-0.8481 1.705,-0.8481c0.29,0 0.557,0.0469 0.8,0.1406c0.246,0.0938 0.447,0.2183 0.602,0.3736c0.156,0.1523 0.279,0.3193 0.369,0.5009c0.091,0.1817 0.144,0.3662 0.159,0.5537l-1.016,0c-0.02,-0.1787 -0.115,-0.3427 -0.285,-0.4921c-0.167,-0.1495 -0.385,-0.2242 -0.655,-0.2242c-0.393,0 -0.706,0.1934 -0.94,0.5801c-0.232,0.3867 -0.352,0.9287 -0.361,1.626l0.04,0c0.094,-0.2373 0.265,-0.4424 0.514,-0.6152c0.252,-0.1729 0.561,-0.2593 0.927,-0.2593c0.249,0 0.487,0.0439 0.712,0.1318c0.229,0.0879 0.432,0.2124 0.611,0.3736c0.182,0.1582 0.327,0.3647 0.435,0.6196c0.108,0.2519 0.163,0.5303 0.163,0.8349c0,0.4278 -0.097,0.8013 -0.29,1.1206c-0.194,0.3194 -0.452,0.5596 -0.774,0.7208c-0.319,0.1582 -0.678,0.2373 -1.077,0.2373c-0.703,0 -1.256,-0.252 -1.661,-0.7559c-0.404,-0.5039 -0.606,-1.2349 -0.606,-2.1929zm1.138,0.9185c0,0.3662 0.11,0.6548 0.33,0.8657c0.219,0.208 0.489,0.312 0.808,0.312c0.314,0 0.577,-0.1025 0.791,-0.3076c0.214,-0.2051 0.321,-0.4951 0.321,-0.8701c0,-0.3721 -0.11,-0.6621 -0.33,-0.8701c-0.216,-0.211 -0.48,-0.3164 -0.791,-0.3164c-0.319,0 -0.587,0.1069 -0.804,0.3208c-0.217,0.2138 -0.325,0.5024 -0.325,0.8657zm4.908,1.8325c-0.12,-0.1143 -0.18,-0.2622 -0.18,-0.4438c0,-0.1817 0.058,-0.3282 0.176,-0.4395c0.12,-0.1113 0.268,-0.167 0.444,-0.167c0.181,0 0.332,0.0571 0.452,0.1714c0.12,0.1113 0.18,0.2563 0.18,0.4351c0,0.1816 -0.06,0.3295 -0.18,0.4438c-0.12,0.1113 -0.271,0.167 -0.452,0.167c-0.173,0 -0.32,-0.0557 -0.44,-0.167zm2.504,-2.6982l0,-0.4307c0,-0.8877 0.197,-1.5938 0.589,-2.1182c0.393,-0.5244 0.942,-0.7866 1.648,-0.7866c0.706,0 1.251,0.2608 1.635,0.7822c0.384,0.5215 0.576,1.229 0.576,2.1226l0,0.4307c0,0.5713 -0.083,1.0737 -0.247,1.5073c-0.164,0.4306 -0.416,0.7705 -0.755,1.0195c-0.34,0.249 -0.749,0.3736 -1.227,0.3736c-0.706,0 -1.252,-0.2608 -1.639,-0.7823c-0.386,-0.5215 -0.58,-1.2275 -0.58,-2.1181zm1.064,-0.0088c0,0.6533 0.102,1.1557 0.307,1.5073c0.208,0.3486 0.493,0.5229 0.853,0.5229c0.36,0 0.644,-0.1757 0.852,-0.5273c0.208,-0.3516 0.312,-0.8525 0.312,-1.5029l0,-0.4175c0,-0.6504 -0.104,-1.1499 -0.312,-1.4985c-0.208,-0.3516 -0.492,-0.5274 -0.852,-0.5274c-0.36,0 -0.645,0.1758 -0.853,0.5274c-0.205,0.3486 -0.307,0.8481 -0.307,1.4985l0,0.4175zm4.802,0.8174l0,-0.8702l1.749,0l0,-1.8149l0.879,0l0,1.8149l1.758,0l0,0.8702l-1.758,0l0,1.8896l-0.879,0l0,-1.8896l-1.749,0z" id="DOWNLOAD APK 6.0+"/>
     <path fill="white" d="m49.1909,38.5l5.2334,-15.3296l3.0884,0l5.2222,15.3296l-2.9087,0l-1.3028,-4.1328l-5.2895,0l-1.3027,4.1328l-2.7403,0zm4.6382,-6.1992l4.1104,0l-1.9991,-6.3789l-0.101,0l-2.0103,6.3789zm10.5625,6.1992l0,-11.8818l2.6055,0l0,1.6733l0.101,0c0.2246,-0.5091 0.6364,-0.9471 1.2354,-1.314c0.5989,-0.3668 1.3289,-0.5503 2.1899,-0.5503c1.2204,0 2.2162,0.3707 2.9873,1.1119c0.7787,0.7337 1.168,1.7706 1.168,3.1108l0,7.8501l-2.6616,0l0,-7.019c0,-1.8418 -0.8199,-2.7627 -2.4595,-2.7627c-0.7861,0 -1.4038,0.2433 -1.853,0.7299c-0.4418,0.4867 -0.6626,1.1905 -0.6626,2.1114l0,6.9404l-2.6504,0zm12.5503,-5.2783l0,-1.3477c0,-1.6546 0.3968,-2.9723 1.1904,-3.9531c0.7936,-0.9808 1.9129,-1.4712 3.3579,-1.4712c0.8835,0 1.6209,0.176 2.2124,0.5278c0.5915,0.3444 0.992,0.7937 1.2017,1.3477l0.101,0l0,-5.9634l2.6504,0l0,16.1382l-2.5942,0l0,-1.8193l-0.1011,0c-0.1647,0.554 -0.5578,1.0219 -1.1792,1.4038c-0.6214,0.3818 -1.3851,0.5727 -2.291,0.5727c-1.4375,0 -2.5568,-0.4866 -3.3579,-1.4599c-0.7936,-0.9808 -1.1904,-2.306 -1.1904,-3.9756zm2.7065,-0.2696c0,1.1081 0.2284,1.9804 0.6851,2.6167c0.4567,0.629 1.123,0.9434 1.999,0.9434c0.831,0 1.4824,-0.307 1.9541,-0.9209c0.4791,-0.6214 0.7187,-1.4936 0.7187,-2.6167l0,-0.8872c0,-1.0781 -0.2433,-1.9279 -0.7299,-2.5493c-0.4792,-0.6214 -1.1418,-0.9321 -1.9878,-0.9321c-0.861,0 -1.5162,0.3182 -1.9654,0.9545c-0.4492,0.6364 -0.6738,1.5012 -0.6738,2.5943l0,0.7973zm11.0454,5.5479l0,-11.8818l2.6504,0l0,1.5385l0.1011,0c0.4492,-1.1455 1.3888,-1.7182 2.8188,-1.7182c0.307,0 0.599,0.0262 0.876,0.0786l0,2.3247c-0.1872,-0.0599 -0.5541,-0.0898 -1.1006,-0.0898c-1.7669,0 -2.6504,0.9209 -2.6504,2.7626l0,6.9854l-2.6953,0zm7.4067,-5.5366l0,-0.8423c0,-1.1081 0.1909,-2.0851 0.5728,-2.9312c0.3893,-0.846 0.992,-1.5198 1.8077,-2.0214c0.816,-0.5017 1.805,-0.7525 2.965,-0.7525c1.737,0 3.059,0.5166 3.965,1.5498c0.913,1.0257 1.37,2.4071 1.37,4.1441l0,0.8535c0,1.7819 -0.453,3.1857 -1.359,4.2114c-0.906,1.0182 -2.231,1.5273 -3.976,1.5273c-1.744,0 -3.073,-0.5091 -3.9866,-1.5273c-0.9059,-1.0182 -1.3589,-2.422 -1.3589,-4.2114zm2.6615,-0.0674c0,0.5091 0.045,0.9733 0.135,1.3926c0.09,0.4192 0.232,0.8086 0.427,1.1679c0.194,0.3519 0.471,0.6289 0.831,0.8311c0.359,0.2021 0.79,0.3032 1.291,0.3032c0.494,0 0.921,-0.0973 1.28,-0.292c0.36,-0.2021 0.633,-0.4829 0.82,-0.8423c0.195,-0.3593 0.333,-0.7487 0.416,-1.1679c0.09,-0.4193 0.135,-0.8835 0.135,-1.3926l0,-0.6851c0,-0.5166 -0.045,-0.9845 -0.135,-1.4038c-0.083,-0.4192 -0.221,-0.8086 -0.416,-1.1679c-0.194,-0.3594 -0.471,-0.6364 -0.831,-0.8311c-0.352,-0.2021 -0.775,-0.3032 -1.269,-0.3032c-0.494,0 -0.924,0.1011 -1.291,0.3032c-0.36,0.2022 -0.637,0.4829 -0.831,0.8423c-0.195,0.3519 -0.337,0.7412 -0.427,1.168c-0.09,0.4192 -0.135,0.8834 -0.135,1.3925l0,0.6851zm10.72,-8.1982c-0.292,-0.2696 -0.438,-0.6102 -0.438,-1.022c0,-0.4118 0.146,-0.7487 0.438,-1.0108c0.299,-0.2695 0.677,-0.4043 1.134,-0.4043c0.479,0 0.865,0.1348 1.157,0.4043c0.299,0.2621 0.449,0.599 0.449,1.0108c0,0.4118 -0.146,0.7524 -0.438,1.022c-0.292,0.262 -0.681,0.393 -1.168,0.393c-0.457,0 -0.835,-0.131 -1.134,-0.393zm-0.169,13.8022l0,-11.8818l2.651,0l0,11.8818l-2.651,0zm5.206,-5.2783l0,-1.3477c0,-1.6546 0.397,-2.9723 1.19,-3.9531c0.794,-0.9808 1.913,-1.4712 3.358,-1.4712c0.884,0 1.621,0.176 2.213,0.5278c0.591,0.3444 0.992,0.7937 1.201,1.3477l0.101,0l0,-5.9634l2.651,0l0,16.1382l-2.594,0l0,-1.8193l-0.102,0c-0.164,0.554 -0.557,1.0219 -1.179,1.4038c-0.621,0.3818 -1.385,0.5727 -2.291,0.5727c-1.437,0 -2.557,-0.4866 -3.358,-1.4599c-0.793,-0.9808 -1.19,-2.306 -1.19,-3.9756zm2.706,-0.2696c0,1.1081 0.229,1.9804 0.686,2.6167c0.456,0.629 1.123,0.9434 1.999,0.9434c0.831,0 1.482,-0.307 1.954,-0.9209c0.479,-0.6214 0.718,-1.4936 0.718,-2.6167l0,-0.8872c0,-1.0781 -0.243,-1.9279 -0.73,-2.5493c-0.479,-0.6214 -1.141,-0.9321 -1.987,-0.9321c-0.861,0 -1.516,0.3182 -1.966,0.9545c-0.449,0.6364 -0.674,1.5012 -0.674,2.5943l0,0.7973z" id="Android_2"/>
    </g>
   </g>
   <g id="download_apple">
    <rect fill="black" rx="5" height="50" width="160" y="50.5" id="Rectangle_2"/>
    <path fill="white" d="m31.4359,59c0.2683,1.8222 -0.4734,3.6073 -1.4518,4.8703c-1.0467,1.3547 -2.851,2.4025 -4.5991,2.3478c-0.3192,-1.7445 0.4979,-3.542 1.4921,-4.7503c1.0906,-1.3336 2.9597,-2.3567 4.5588,-2.4678zm5.2515,25.6481c0.9012,-1.3812 1.2379,-2.0779 1.9375,-3.6373c-5.0884,-1.935 -5.9037,-9.169 -0.8679,-11.9455c-1.536,-1.9263 -3.6945,-3.0428 -5.7319,-3.0428c-1.4681,0 -2.4739,0.3831 -3.3884,0.7314c-0.762,0.2902 -1.4605,0.5563 -2.3102,0.5563c-0.9181,0 -1.7311,-0.2916 -2.5824,-0.5968c-0.9355,-0.3354 -1.9172,-0.6874 -3.1354,-0.6874c-2.2864,0 -4.7201,1.397 -6.2631,3.7854c-2.169,3.3639 -1.799,9.6877 1.7183,15.0748c1.2572,1.928 2.9369,4.0942 5.134,4.1136c0.9116,0.009 1.5182,-0.263 2.1747,-0.5575c0.7513,-0.337 1.568,-0.7033 2.982,-0.7108c1.4223,-0.0085 2.2261,0.3622 2.9675,0.7042c0.6396,0.295 1.2328,0.5686 2.1366,0.5588c2.1988,-0.0176 3.9715,-2.4184 5.2287,-4.3464z" clip-rule="evenodd" fill-rule="evenodd" id="Shape"/>
    <g id="Group 2_2">
     <path fill="white" d="m51.1592,61.0015l0,5.9985l2.1137,0c1.9512,0 2.6675,-1.27 2.6675,-3.0103c0,-1.7578 -0.7339,-2.9882 -2.6675,-2.9882l-2.1137,0zm1.0635,0.8877l0.9228,0c1.2788,0 1.7007,0.8701 1.7007,2.1181c0,1.481 -0.5845,2.105 -1.7007,2.105l-0.9228,0l0,-4.2231zm6.2878,1.727c0,-1.2129 0.6153,-1.8325 1.4458,-1.8325c0.835,0 1.4414,0.6196 1.4414,1.8325l0,0.813c0,1.2129 -0.6064,1.7886 -1.4414,1.7886c-0.8305,0 -1.4458,-0.5757 -1.4458,-1.7886l0,-0.813zm-1.0766,0.8086c0,1.6963 0.958,2.6939 2.518,2.6939c1.5601,0 2.5269,-0.9976 2.5269,-2.6939l0,-0.7998c0,-1.7007 -0.9536,-2.7422 -2.5181,-2.7422c-1.5556,0 -2.5268,1.0371 -2.5268,2.7422l0,0.7998zm8.8015,2.5752l1.1558,-4.3198l0.0395,0l1.1558,4.3198l0.9712,0l1.604,-5.9985l-1.1382,0l-0.9932,4.4033l-0.0439,0l-1.0943,-4.4033l-0.958,0l-1.0986,4.4033l-0.0395,0l-0.9976,-4.4033l-1.1382,0l1.5996,5.9985l0.9756,0zm7.347,0l0,-4.21l0.0307,0l2.7818,4.21l0.9096,0l0,-5.9985l-0.9931,0l0,4.1967l-0.0352,0l-2.7729,-4.1967l-0.9185,0l0,5.9985l0.9976,0zm9.4431,-0.9141l-2.6103,0l0,-5.0844l-1.0635,0l0,5.9985l3.6738,0l0,-0.9141zm2.2449,-2.4697c0,-1.2129 0.6152,-1.8325 1.4458,-1.8325c0.835,0 1.4414,0.6196 1.4414,1.8325l0,0.813c0,1.2129 -0.6064,1.7886 -1.4414,1.7886c-0.8306,0 -1.4458,-0.5757 -1.4458,-1.7886l0,-0.813zm-1.0767,0.8086c0,1.6963 0.9581,2.6939 2.5181,2.6939c1.5601,0 2.5269,-0.9976 2.5269,-2.6939l0,-0.7998c0,-1.7007 -0.9536,-2.7422 -2.5181,-2.7422c-1.5557,0 -2.5269,1.0371 -2.5269,2.7422l0,0.7998zm7.2327,2.5752l0.5098,-1.6172l2.0698,0l0.5098,1.6172l1.1382,0l-2.0435,-5.9985l-1.2085,0l-2.0478,5.9985l1.0722,0zm1.5689,-4.9219l0.7822,2.4961l-1.6084,0l0.7866,-2.4961l0.0396,0zm4.117,-1.0766l0,5.9985l2.1137,0c1.951,0 2.668,-1.27 2.668,-3.0103c0,-1.7578 -0.734,-2.9882 -2.668,-2.9882l-2.1137,0zm1.0634,0.8877l0.9229,0c1.2784,0 1.7004,0.8701 1.7004,2.1181c0,1.481 -0.584,2.105 -1.7004,2.105l-0.9229,0l0,-4.2231zm8.7923,1.727c0,-1.2129 0.615,-1.8325 1.446,-1.8325c0.835,0 1.441,0.6196 1.441,1.8325l0,0.813c0,1.2129 -0.606,1.7886 -1.441,1.7886c-0.831,0 -1.446,-0.5757 -1.446,-1.7886l0,-0.813zm-1.077,0.8086c0,1.6963 0.958,2.6939 2.518,2.6939c1.56,0 2.527,-0.9976 2.527,-2.6939l0,-0.7998c0,-1.7007 -0.954,-2.7422 -2.518,-2.7422c-1.556,0 -2.527,1.0371 -2.527,2.7422l0,0.7998zm7.844,2.5752l0,-4.21l0.03,0l2.782,4.21l0.91,0l0,-5.9985l-0.993,0l0,4.1967l-0.035,0l-2.773,-4.1967l-0.919,0l0,5.9985l0.998,0zm10.484,0l0,-5.0977l1.744,0l0,-0.9008l-4.539,0l0,0.9008l1.74,0l0,5.0977l1.055,0zm8.001,0l0,-5.9985l-1.063,0l0,2.4741l-2.672,0l0,-2.4741l-1.063,0l0,5.9985l1.063,0l0,-2.6279l2.672,0l0,2.6279l1.063,0zm5.827,-0.8877l-2.729,0l0,-1.7358l2.566,0l0,-0.8394l-2.566,0l0,-1.6479l2.729,0l0,-0.8877l-3.788,0l0,5.9985l3.788,0l0,-0.8877z" id="DOWNLOAD ON THE"/>
     <path fill="white" d="m49.1909,89l5.2334,-15.3296l3.0884,0l5.2222,15.3296l-2.9087,0l-1.3028,-4.1328l-5.2895,0l-1.3027,4.1328l-2.7403,0zm4.6382,-6.1992l4.1104,0l-1.9991,-6.3789l-0.101,0l-2.0103,6.3789zm10.5737,10.2085l0,-15.9024l2.5943,0l0,1.7183l0.101,0c0.2471,-0.569 0.6739,-1.022 1.2803,-1.3589c0.6064,-0.3444 1.3551,-0.5166 2.2461,-0.5166c1.3551,0 2.437,0.4754 3.2456,1.4263c0.8161,0.9508 1.2241,2.276 1.2241,3.9756l0,1.4262c0,1.6996 -0.408,3.021 -1.2241,3.9644c-0.8086,0.9433 -1.9054,1.415 -3.2905,1.415c-0.8685,0 -1.5873,-0.1684 -2.1563,-0.5053c-0.569,-0.337 -0.9883,-0.7787 -1.2578,-1.3252l-0.1123,0l0,5.6826l-2.6504,0zm2.6504,-9.3775c0,0.9808 0.2433,1.7894 0.73,2.4258c0.4941,0.6289 1.1567,0.9434 1.9878,0.9434c0.7936,0 1.4262,-0.292 1.8979,-0.876c0.4792,-0.5915 0.7188,-1.4487 0.7188,-2.5718l0,-0.9995c0,-1.1081 -0.2359,-1.9578 -0.7075,-2.5493c-0.4717,-0.599 -1.1231,-0.8984 -1.9541,-0.8984c-0.8236,0 -1.475,0.3032 -1.9541,0.9096c-0.4792,0.599 -0.7188,1.4001 -0.7188,2.4033l0,1.2129zm10.3716,9.3775l0,-15.9024l2.5942,0l0,1.7183l0.1011,0c0.247,-0.569 0.6738,-1.022 1.2803,-1.3589c0.6064,-0.3444 1.3551,-0.5166 2.246,-0.5166c1.3552,0 2.4371,0.4754 3.2457,1.4263c0.816,0.9508 1.2241,2.276 1.2241,3.9756l0,1.4262c0,1.6996 -0.4081,3.021 -1.2241,3.9644c-0.8086,0.9433 -1.9055,1.415 -3.2906,1.415c-0.8685,0 -1.5872,-0.1684 -2.1562,-0.5053c-0.569,-0.337 -0.9883,-0.7787 -1.2578,-1.3252l-0.1123,0l0,5.6826l-2.6504,0zm2.6504,-9.3775c0,0.9808 0.2433,1.7894 0.7299,2.4258c0.4942,0.6289 1.1568,0.9434 1.9878,0.9434c0.7937,0 1.4263,-0.292 1.898,-0.876c0.4791,-0.5915 0.7187,-1.4487 0.7187,-2.5718l0,-0.9995c0,-1.1081 -0.2358,-1.9578 -0.7075,-2.5493c-0.4717,-0.599 -1.123,-0.8984 -1.9541,-0.8984c-0.8236,0 -1.4749,0.3032 -1.9541,0.9096c-0.4792,0.599 -0.7187,1.4001 -0.7187,2.4033l0,1.2129zm13.8251,1.0782l2.6392,0c0.0599,0.6813 0.3818,1.2503 0.9658,1.707c0.584,0.4492 1.3813,0.6738 2.3921,0.6738c0.9586,0 1.7066,-0.2059 2.2456,-0.6177c0.547,-0.4117 0.82,-0.9695 0.82,-1.6733c0,-0.554 -0.194,-0.9958 -0.584,-1.3252c-0.382,-0.3294 -0.988,-0.5952 -1.819,-0.7974l-2.4595,-0.5952c-0.5316,-0.1198 -1.0182,-0.2845 -1.46,-0.4941c-0.4342,-0.2171 -0.8347,-0.4867 -1.2016,-0.8086c-0.3594,-0.3294 -0.6401,-0.7375 -0.8423,-1.2241c-0.2021,-0.4867 -0.3032,-1.0332 -0.3032,-1.6397c0,-0.9508 0.2583,-1.7781 0.7749,-2.4819c0.5166,-0.7113 1.1942,-1.2391 2.0327,-1.5835c0.8385,-0.3444 1.7707,-0.5166 2.7964,-0.5166c1.0336,0 1.9656,0.1759 2.7966,0.5278c0.838,0.3519 1.505,0.876 1.999,1.5723c0.501,0.6888 0.76,1.4899 0.775,2.4033l-2.583,0c-0.053,-0.6663 -0.337,-1.2166 -0.854,-1.6509c-0.516,-0.4342 -1.235,-0.6513 -2.1561,-0.6513c-0.861,0 -1.5535,0.1946 -2.0776,0.584c-0.5166,0.3818 -0.7749,0.9096 -0.7749,1.5834c0,0.9958 0.7038,1.6584 2.1113,1.9878l2.4703,0.5953c0.614,0.1422 1.153,0.3182 1.618,0.5278c0.464,0.2096 0.887,0.4792 1.269,0.8086c0.389,0.3294 0.685,0.7412 0.887,1.2353c0.202,0.4942 0.303,1.0632 0.303,1.7071c0,1.4824 -0.546,2.6429 -1.64,3.4814c-1.085,0.8386 -2.53,1.2578 -4.3345,1.2578c-0.8311,0 -1.5835,-0.0936 -2.2574,-0.2807c-0.6663,-0.1872 -1.2166,-0.4305 -1.6508,-0.73c-0.4268,-0.2995 -0.7862,-0.6514 -1.0782,-1.0557c-0.292,-0.4118 -0.5016,-0.8236 -0.6289,-1.2353c-0.1198,-0.4193 -0.1834,-0.8498 -0.1909,-1.2915zm13.2357,-5.4244l0,-2.0776l1.707,0l0,-2.9648l2.583,0l0,2.9648l2.313,0l0,2.0776l-2.313,0l0,6.0982c0,0.6214 0.131,1.0482 0.393,1.2803c0.269,0.2246 0.737,0.3369 1.404,0.3369c0.292,0 0.486,-0.0075 0.584,-0.0225l0,2.0103c-0.382,0.0599 -0.794,0.0898 -1.236,0.0898c-0.966,0 -1.726,-0.1235 -2.28,-0.3706c-0.554,-0.2471 -0.943,-0.6102 -1.168,-1.0893c-0.217,-0.4867 -0.325,-1.1418 -0.325,-1.9654l0,-6.3677l-1.662,0zm8.136,4.1778l0,-0.8423c0,-1.1081 0.191,-2.0851 0.573,-2.9312c0.389,-0.846 0.992,-1.5198 1.808,-2.0214c0.816,-0.5017 1.805,-0.7525 2.965,-0.7525c1.737,0 3.058,0.5166 3.964,1.5498c0.914,1.0257 1.371,2.4071 1.371,4.1441l0,0.8535c0,1.7819 -0.453,3.1857 -1.359,4.2114c-0.906,1.0182 -2.231,1.5273 -3.976,1.5273c-1.744,0 -3.073,-0.5091 -3.987,-1.5273c-0.906,-1.0182 -1.359,-2.422 -1.359,-4.2114zm2.662,-0.0674c0,0.5091 0.045,0.9733 0.135,1.3926c0.09,0.4192 0.232,0.8086 0.426,1.1679c0.195,0.3519 0.472,0.6289 0.832,0.8311c0.359,0.2021 0.789,0.3032 1.291,0.3032c0.494,0 0.921,-0.0973 1.28,-0.292c0.36,-0.2021 0.633,-0.4829 0.82,-0.8423c0.195,-0.3593 0.333,-0.7487 0.416,-1.1679c0.09,-0.4193 0.134,-0.8835 0.134,-1.3926l0,-0.6851c0,-0.5166 -0.044,-0.9845 -0.134,-1.4038c-0.083,-0.4192 -0.221,-0.8086 -0.416,-1.1679c-0.195,-0.3594 -0.472,-0.6364 -0.831,-0.8311c-0.352,-0.2021 -0.775,-0.3032 -1.269,-0.3032c-0.494,0 -0.925,0.1011 -1.291,0.3032c-0.36,0.2022 -0.637,0.4829 -0.832,0.8423c-0.194,0.3519 -0.336,0.7412 -0.426,1.168c-0.09,0.4192 -0.135,0.8834 -0.135,1.3925l0,0.6851zm10.45,5.604l0,-11.8818l2.651,0l0,1.5385l0.101,0c0.449,-1.1455 1.388,-1.7182 2.818,-1.7182c0.307,0 0.599,0.0262 0.876,0.0786l0,2.3247c-0.187,-0.0599 -0.554,-0.0898 -1.1,-0.0898c-1.767,0 -2.651,0.9209 -2.651,2.7626l0,6.9854l-2.695,0zm7.407,-5.4131l0,-0.9995c0,-1.737 0.457,-3.1146 1.37,-4.1328c0.913,-1.0257 2.175,-1.5386 3.785,-1.5386c1.639,0 2.905,0.5129 3.796,1.5386c0.898,1.0257 1.347,2.3996 1.347,4.1216l0,1.0669l-7.681,0l0,0.3706c0,0.8759 0.232,1.6097 0.696,2.2011c0.464,0.5915 1.127,0.8873 1.988,0.8873c0.681,0 1.213,-0.1498 1.594,-0.4493c0.39,-0.2994 0.629,-0.6775 0.719,-1.1342l2.561,0c-0.038,0.3369 -0.124,0.67 -0.259,0.9995c-0.127,0.3294 -0.318,0.6588 -0.572,0.9882c-0.255,0.3295 -0.562,0.6177 -0.921,0.8648c-0.352,0.2471 -0.798,0.4492 -1.337,0.6064c-0.539,0.1498 -1.13,0.2246 -1.774,0.2246c-1.692,0 -3.002,-0.4978 -3.931,-1.4936c-0.921,-1.0033 -1.381,-2.3771 -1.381,-4.1216zm2.617,-1.7295l5.098,0l0,-0.0224c0,-0.8536 -0.228,-1.5461 -0.685,-2.0777c-0.457,-0.5316 -1.074,-0.7973 -1.853,-0.7973c-0.786,0 -1.411,0.2695 -1.875,0.8086c-0.457,0.5315 -0.685,1.2203 -0.685,2.0664l0,0.0224z" id="App Store"/>
    </g>
   </g>
   <g id="download_huawei">
    <rect fill="black" rx="5" height="50" width="160" y="152" id="Rectangle_3"/>
    <g id="Huawei_AppGallery 1">
     <path fill="#E14459" d="m34.5056,162.155l-16.9064,0c-3.5328,0 -6.3968,2.863 -6.3968,6.396l0,16.907c0,3.533 2.864,6.397 6.3968,6.397l16.9064,0c3.5328,0 6.3968,-2.864 6.3968,-6.397l0,-16.907c0,-3.533 -2.864,-6.396 -6.3968,-6.396z" id="rect817"/>
     <path fill="#C73148" d="m18.4423,164.096c-0.224,0 -0.4388,0.089 -0.597,0.247c-0.1582,0.158 -0.247,0.373 -0.2468,0.596c0.0002,0.223 0.0894,0.437 0.2479,0.595c0.1585,0.157 0.3734,0.246 0.5974,0.246c0.2241,0 0.4389,-0.089 0.5973,-0.247c0.1583,-0.158 0.2473,-0.372 0.2473,-0.595l0,-0.002c-0.0004,-0.223 -0.0898,-0.437 -0.2484,-0.594c-0.1587,-0.158 -0.3736,-0.246 -0.5977,-0.246l0,0zm15.1134,0c-0.224,0 -0.4388,0.089 -0.597,0.247c-0.1583,0.158 -0.247,0.373 -0.2468,0.596c0.0002,0.223 0.0894,0.437 0.2479,0.595c0.1586,0.157 0.3735,0.246 0.5975,0.246c0.224,0 0.4388,-0.089 0.5972,-0.247c0.1583,-0.158 0.2473,-0.372 0.2473,-0.595l0,-0.002c-0.0004,-0.223 -0.0898,-0.437 -0.2484,-0.594c-0.1587,-0.158 -0.3737,-0.246 -0.5977,-0.246l0,0z" id="path838"/>
     <path fill="white" d="m18.4088,164.822c-0.2936,0.015 -0.2787,0.443 -0.2787,0.443c1.578,3.073 4.4838,4.58 7.8346,4.58c3.3464,-0.005 6.2809,-1.529 7.8569,-4.598c0,0 0.0625,-0.578 -0.5525,-0.377c-1.6163,2.679 -4.3316,4.263 -7.3024,4.268c-2.9765,0.001 -5.6821,-1.567 -7.3014,-4.251c-0.1046,-0.051 -0.1887,-0.069 -0.2565,-0.065l0,0zm10.6803,11.945l-0.8978,2.674l-0.874,-2.672l-0.8531,0l1.3774,3.887l0.6642,0l0.8998,-2.554l0.8988,2.554l0.6696,0l1.3745,-3.887l-0.8319,0l-0.8755,2.672l-0.8977,-2.674l-0.6543,0zm-4.7687,0.001l-1.742,3.886l0.8189,0l0.3363,-0.753l0.0238,-0.056l1.81,0l0.3546,0.809l0.8413,0l-1.7262,-3.863l-0.0154,-0.023l-0.7013,0zm12.6157,0l0,3.883l0.7917,0l0,-3.883l-0.7917,0zm-22.6983,0.001l0,3.888l0.8026,0l0,-1.579l1.8114,0l0,1.579l0.8026,0l0,-3.888l-0.8026,0l0,1.569l-1.8114,0l0,-1.569l-0.8026,0zm7.1303,0.001l0,2.225c0,0.633 -0.3191,0.97 -0.8988,0.97c-0.583,0 -0.9043,-0.347 -0.9043,-0.996l0,-2.197l-0.802,0l0,2.224c0,1.093 0.6184,1.72 1.6959,1.72c1.0876,0 1.7112,-0.639 1.7112,-1.753l0,-2.193l-0.802,0zm11.6272,0.001l0,3.883l2.986,0l0,-0.708l-2.1949,0l0,-0.962l1.4593,0l0,-0.709l-1.4593,0l0,-0.795l2.1185,0l0,-0.709l-2.9096,0zm-8.3352,0.981l0.5725,1.302l0.0386,0.089l-1.2132,0l0.0382,-0.089l0.5639,-1.302z" id="path2"/>
    </g>
    <g id="Group 2_3">
     <path fill="white" d="m56.3398,164.939c-0.0537,-1.157 -0.9082,-2.236 -2.5781,-2.236c-1.7285,0 -2.793,1.152 -2.793,3.013l0,0.864c0,1.797 0.8741,3.052 2.7686,3.052c1.9531,0 2.6172,-1.353 2.6172,-2.344l0,-1.343l-2.6025,0l0,0.913l1.4746,0l0,0.489c0,0.722 -0.5909,1.279 -1.4795,1.279c-1.0987,0 -1.5918,-0.82 -1.5918,-2.046l0,-0.859c0,-1.402 0.6933,-2.012 1.5918,-2.012c0.7373,0 1.3427,0.415 1.4404,1.23l1.1523,0zm6.2297,3.575l-3.0322,0l0,-1.929l2.8516,0l0,-0.933l-2.8516,0l0,-1.831l3.0322,0l0,-0.986l-4.209,0l0,6.665l4.209,0l0,-0.986zm4.5061,0.986l0,-5.664l1.9385,0l0,-1.001l-5.044,0l0,1.001l1.9336,0l0,5.664l1.1719,0zm7.5228,0l0,-6.665l-1.1816,0l0,6.665l1.1816,0zm4.8284,0l0,-5.664l1.9384,0l0,-1.001l-5.0439,0l0,1.001l1.9336,0l0,5.664l1.1719,0zm7.2738,-3.76c0,-1.347 0.6836,-2.036 1.6064,-2.036c0.9278,0 1.6016,0.689 1.6016,2.036l0,0.904c0,1.347 -0.6738,1.987 -1.6016,1.987c-0.9228,0 -1.6064,-0.64 -1.6064,-1.987l0,-0.904zm-1.1963,0.899c0,1.884 1.0644,2.993 2.7978,2.993c1.7334,0 2.8077,-1.109 2.8077,-2.993l0,-0.889c0,-1.89 -1.0596,-3.047 -2.7979,-3.047c-1.7285,0 -2.8076,1.152 -2.8076,3.047l0,0.889zm8.715,2.861l0,-4.678l0.0342,0l3.0908,4.678l1.0108,0l0,-6.665l-1.1035,0l0,4.663l-0.0391,0l-3.0811,-4.663l-1.0205,0l0,6.665l1.1084,0z" id="GET IT ON"/>
     <path fill="white" d="m51.6865,188.5l1.1895,-3.773l4.8296,0l1.1894,3.773l2.6558,0l-4.7681,-13.997l-2.8198,0l-4.7783,13.997l2.5019,0zm3.6607,-11.484l1.8252,5.824l-3.753,0l1.8355,-5.824l0.0923,0zm13.1713,11.628c2.4917,0 4.1939,-1.867 4.1939,-5.097l0,-0.953c0,-3.261 -1.7227,-5.096 -4.1426,-5.096c-1.4766,0 -2.5737,0.707 -3.1582,1.753l-0.0923,0l0,-1.6l-2.3687,0l0,14.51l2.4302,0l0,-5.189l0.0923,0c0.5537,1.005 1.6201,1.672 3.0454,1.672zm-0.6357,-1.969c-1.5484,0 -2.5225,-1.241 -2.5225,-3.251l0,-0.758c0,-1.959 0.9639,-3.2 2.4917,-3.2c1.4971,0 2.3892,1.159 2.3892,3.21l0,0.748c0,2.123 -0.9536,3.251 -2.3584,3.251zm12.6074,1.969c2.4917,0 4.1938,-1.867 4.1938,-5.097l0,-0.953c0,-3.261 -1.7227,-5.096 -4.1426,-5.096c-1.4765,0 -2.5737,0.707 -3.1582,1.753l-0.0923,0l0,-1.6l-2.3686,0l0,14.51l2.4302,0l0,-5.189l0.0922,0c0.5538,1.005 1.6202,1.672 3.0455,1.672zm-0.6358,-1.969c-1.5483,0 -2.5224,-1.241 -2.5224,-3.251l0,-0.758c0,-1.959 0.9638,-3.2 2.4917,-3.2c1.497,0 2.3891,1.159 2.3891,3.21l0,0.748c0,2.123 -0.9536,3.251 -2.3584,3.251zm17.8369,-7.752c-0.1128,-2.43 -1.9072,-4.696 -5.4141,-4.696c-3.6299,0 -5.8652,2.419 -5.8652,6.326l0,1.815c0,3.774 1.8354,6.409 5.814,6.409c4.1015,0 5.496,-2.84 5.496,-4.922l0,-2.82l-5.4653,0l0,1.918l3.0967,0l0,1.025c0,1.518 -1.2407,2.687 -3.1069,2.687c-2.3072,0 -3.3428,-1.723 -3.3428,-4.297l0,-1.805c0,-2.942 1.456,-4.224 3.3428,-4.224c1.5483,0 2.8198,0.871 3.0249,2.584l2.4199,0zm8.2697,8.254l0.093,0l0,1.323l2.296,0l0,-7.373c0,-2.46 -1.835,-3.65 -4.275,-3.65c-2.974,0 -4.184,1.589 -4.2763,3.425l2.2763,0c0.072,-0.923 0.759,-1.559 1.948,-1.559c1.231,0 1.928,0.667 1.928,1.856l0,1.005l-2.707,0c-2.502,0.01 -3.8452,1.241 -3.8452,3.179c0,2.02 1.4562,3.281 3.5582,3.281c1.599,0 2.543,-0.666 3.004,-1.487zm-2.245,-0.328c-0.974,0 -1.897,-0.523 -1.897,-1.62c0,-0.872 0.605,-1.477 1.876,-1.477l2.256,0l0,1.18c0,1.138 -0.974,1.917 -2.235,1.917zm7.224,1.651l2.42,0l0,-14.735l-2.42,0l0,14.735zm5.183,0l2.42,0l0,-14.735l-2.42,0l0,14.735zm9.48,0.185c2.748,0 4.174,-1.61 4.471,-3.364l-2.276,0c-0.257,0.923 -1.046,1.487 -2.174,1.487c-1.487,0 -2.451,-1.159 -2.451,-2.922l0,-0.277l7.024,0l0,-1.046c0,-3.076 -1.784,-5.096 -4.696,-5.096c-2.851,0 -4.707,1.917 -4.707,5.004l0,1.066c0,3.251 1.877,5.148 4.809,5.148zm-2.43,-6.706l0,-0.021c0,-1.487 0.923,-2.646 2.338,-2.646c1.405,0 2.317,1.149 2.317,2.646l0,0.021l-4.655,0zm9.162,6.521l2.471,0l0,-6.337c0,-1.466 0.616,-2.563 2.42,-2.563c0.39,0 0.8,0.02 1.005,0.082l0,-2.123c-0.215,-0.041 -0.472,-0.072 -0.8,-0.072c-1.497,0 -2.307,0.933 -2.573,1.61l-0.103,0l0,-1.446l-2.42,0l0,10.849zm17.171,-10.849l-2.574,0l-2.533,8.552l-0.082,0l-2.502,-8.552l-2.676,0l3.825,10.911l-0.113,0.44c-0.216,0.985 -0.698,1.549 -2.02,1.549c-0.287,0 -0.687,-0.031 -0.862,-0.062l0,1.795c0.277,0.051 0.841,0.112 1.364,0.112c2.615,0 3.558,-1.507 4.245,-3.353l0.277,-0.738c0.031,-0.082 3.651,-10.654 3.651,-10.654z" id="AppGallery"/>
    </g>
   </g>
   <g id="download_samsung">
    <rect fill="black" rx="5" height="50" width="160" y="203" id="Rectangle_4"/>
    <g id="Group 14">
     <path fill="white" d="m116.314,229.694l1.48,0l0,-1.317l2.013,-1.377l0,2.694l1.761,0l0,1.791l-1.761,0l0,3.241c0,1.51 0.207,1.747 1.761,1.747l0,1.88l-0.281,0c-2.679,0 -3.493,-0.859 -3.493,-3.611l0,-3.257l-1.48,0l0,-1.791zm-43.1359,-2.297l2.0133,0l0,10.954l-2.0133,0l0,-10.954zm-22.1781,5.553c0,-3.078 2.3237,-5.55 5.5207,-5.55c2.2352,0 3.9967,1.139 4.9142,2.767l-1.7761,1.066c-0.666,-1.228 -1.702,-1.88 -3.1231,-1.88c-2.013,0 -3.5377,1.629 -3.5377,3.597c0,1.998 1.51,3.597 3.6115,3.597c1.6135,0 2.7386,-0.918 3.1232,-2.339l-3.4485,0l0,-1.924l5.6095,0l0,0.8c0,2.915 -2.0573,5.417 -5.2842,5.417c-3.3746,0 -5.6095,-2.561 -5.6095,-5.551zm16.1057,-3.433c-2.1906,0 -4.2925,1.642 -4.2925,4.514c0,2.827 2.1757,4.5 4.2629,4.5c1.1397,0 2.1757,-0.504 2.8124,-1.303l0,1.125l1.998,0l0,-8.659l-1.998,0l0,1.036c-0.6218,-0.74 -1.6431,-1.213 -2.7828,-1.213zm0.2961,1.82c1.48,0 2.5902,1.199 2.5902,2.664c0,1.495 -1.1102,2.694 -2.5902,2.694c-1.4801,0 -2.6198,-1.184 -2.6198,-2.694c0,-1.494 1.1397,-2.664 2.6198,-2.664zm8.8084,2.694c0,-2.872 2.1018,-4.514 4.2925,-4.514c1.1397,0 2.161,0.473 2.7828,1.213l0,-1.036l1.998,0l0,8.659l-1.998,0l0,-1.125c-0.6364,0.799 -1.6724,1.303 -2.8124,1.303c-2.0869,0 -4.2629,-1.673 -4.2629,-4.5zm7.179,-0.03c0,-1.465 -1.1101,-2.664 -2.5899,-2.664c-1.4803,0 -2.6201,1.17 -2.6201,2.664c0,1.51 1.1398,2.694 2.6201,2.694c1.4795,0 2.5899,-1.199 2.5899,-2.694zm2.6513,-4.307l3.1378,4.248l-3.2565,4.411l2.4424,0l2.0576,-2.886l2.1164,2.886l2.4422,0l-3.3157,-4.381l3.1084,-4.278l-2.3679,0l-1.9541,2.753l-1.9682,-2.753l-2.4424,0zm12.686,8.229l-3.5523,-8.229l2.1311,0l2.4129,5.832l2.2788,-5.832l2.103,0l-5.1663,12.655l-2.0276,0l1.8204,-4.426zm11.3105,-2.811l-1.836,1.45c0.977,1.11 2.265,1.939 4.219,1.939c2.368,0 3.73,-1.658 3.73,-3.36c0,-2.072 -1.658,-2.723 -3.123,-3.197c-0.072,-0.024 -0.144,-0.047 -0.215,-0.07c-1.078,-0.352 -1.991,-0.649 -1.991,-1.455c0,-0.695 0.533,-1.228 1.51,-1.228c0.858,0 1.495,0.355 1.954,1.036l1.657,-1.258c-0.873,-0.903 -1.879,-1.569 -3.626,-1.569c-2.072,0 -3.582,1.362 -3.582,3.093c0,2.058 1.614,2.62 3.064,3.079c0.063,0.02 0.125,0.039 0.188,0.058l0,0c1.083,0.33 2.062,0.629 2.062,1.496c0,0.756 -0.577,1.451 -1.643,1.451c-0.977,0 -1.821,-0.533 -2.368,-1.465zm16.55,-5.596c-2.502,0 -4.485,1.999 -4.485,4.515c0,2.501 1.983,4.5 4.485,4.5c2.486,0 4.484,-1.999 4.484,-4.5c0,-2.516 -1.998,-4.515 -4.484,-4.515zm0,1.88c1.406,0 2.516,1.185 2.516,2.635c0,1.436 -1.11,2.62 -2.516,2.62c-1.436,0 -2.517,-1.184 -2.517,-2.62c0,-1.45 1.081,-2.635 2.517,-2.635zm5.507,-1.702l1.983,0l0,1.288c0.4,-0.859 1.125,-1.288 2.22,-1.288c0.622,0 1.14,0.148 1.525,0.37l-0.755,1.894c-0.296,-0.192 -0.637,-0.34 -1.199,-0.34c-1.154,0 -1.776,0.622 -1.776,2.116l0,4.619l-1.998,0l0,-8.659l0,0zm10.451,-0.178c-2.532,0 -4.5,1.999 -4.5,4.53c0,2.501 1.85,4.484 4.574,4.484c1.924,0 3.286,-0.946 4.041,-2.338l-1.643,-0.947c-0.415,0.917 -1.288,1.524 -2.398,1.524c-1.421,0 -2.398,-0.828 -2.664,-2.043l7.045,0l0,-0.754c0,-2.561 -1.88,-4.456 -4.455,-4.456zm2.427,3.538l-4.914,0c0.355,-1.051 1.288,-1.776 2.487,-1.776c1.243,0 2.131,0.622 2.427,1.776z" clip-rule="evenodd" fill-rule="evenodd" id="Union"/>
    </g>
    <g id="Group 13">
     <rect fill="url(#paint0_linear)" rx="10.9091" height="30" width="30" y="213" x="11" id="Rectangle 512"/>
     <g id="Shape 526">
      <g id="Group">
       <path fill="white" d="m29.9356,224.577l-0.0567,-0.249c0,-2.186 -1.7789,-3.964 -3.9652,-3.964c-2.1862,0 -3.9648,1.778 -3.9648,3.964l-0.0568,0.249l-3.2557,0l0.8775,8.182c0.1758,1.664 1.5792,2.926 3.2527,2.926l6.2944,0c1.6734,0 3.0769,-1.262 3.2526,-2.926l0.8777,-8.182l-3.2557,0zm-6.3199,0l0.0639,-0.249c0,-1.232 1.0023,-2.234 2.2341,-2.234c1.2322,0 2.2344,1.002 2.2344,2.234l0.0639,0.249l-4.5963,0z" clip-rule="evenodd" fill-rule="evenodd" id="Vector"/>
      </g>
     </g>
    </g>
    <g id="Group 2_4">
     <path fill="white" d="m56.3398,215.939c-0.0537,-1.157 -0.9082,-2.236 -2.5781,-2.236c-1.7285,0 -2.793,1.152 -2.793,3.013l0,0.864c0,1.797 0.8741,3.052 2.7686,3.052c1.9531,0 2.6172,-1.353 2.6172,-2.344l0,-1.343l-2.6025,0l0,0.913l1.4746,0l0,0.489c0,0.722 -0.5909,1.279 -1.4795,1.279c-1.0987,0 -1.5918,-0.82 -1.5918,-2.046l0,-0.859c0,-1.402 0.6933,-2.012 1.5918,-2.012c0.7373,0 1.3427,0.415 1.4404,1.23l1.1523,0zm6.2297,3.575l-3.0322,0l0,-1.929l2.8516,0l0,-0.933l-2.8516,0l0,-1.831l3.0322,0l0,-0.986l-4.209,0l0,6.665l4.209,0l0,-0.986zm4.5061,0.986l0,-5.664l1.9385,0l0,-1.001l-5.044,0l0,1.001l1.9336,0l0,5.664l1.1719,0zm7.5228,0l0,-6.665l-1.1816,0l0,6.665l1.1816,0zm4.8284,0l0,-5.664l1.9384,0l0,-1.001l-5.0439,0l0,1.001l1.9336,0l0,5.664l1.1719,0zm7.2738,-3.76c0,-1.347 0.6836,-2.036 1.6064,-2.036c0.9278,0 1.6016,0.689 1.6016,2.036l0,0.904c0,1.347 -0.6738,1.987 -1.6016,1.987c-0.9228,0 -1.6064,-0.64 -1.6064,-1.987l0,-0.904zm-1.1963,0.899c0,1.884 1.0644,2.993 2.7978,2.993c1.7334,0 2.8077,-1.109 2.8077,-2.993l0,-0.889c0,-1.89 -1.0596,-3.047 -2.7979,-3.047c-1.7285,0 -2.8076,1.152 -2.8076,3.047l0,0.889zm8.715,2.861l0,-4.678l0.0342,0l3.0908,4.678l1.0108,0l0,-6.665l-1.1035,0l0,4.663l-0.0391,0l-3.0811,-4.663l-1.0205,0l0,6.665l1.1084,0z" id="GET IT ON_2"/>
    </g>
   </g>
   <g id="download_play">
    <rect fill="black" rx="5" height="50" width="160" y="101" id="Rectangle_5"/>
    <g id="Group 2_5">
     <path fill="white" d="m50.9687,114.58l0,-0.864c0,-0.931 0.2491,-1.665 0.7471,-2.202c0.5013,-0.541 1.1833,-0.811 2.0459,-0.811c0.4037,0 0.7682,0.062 1.0938,0.186c0.3287,0.123 0.5973,0.291 0.8056,0.503c0.2084,0.208 0.3695,0.444 0.4834,0.708c0.1172,0.263 0.1823,0.543 0.1953,0.839l-1.1523,0c-0.0488,-0.393 -0.2051,-0.696 -0.4688,-0.908c-0.2636,-0.215 -0.5875,-0.322 -0.9716,-0.322c-0.4753,0 -0.8594,0.168 -1.1524,0.503c-0.2929,0.335 -0.4394,0.838 -0.4394,1.509l0,0.859c0,0.638 0.1318,1.139 0.3955,1.504c0.2669,0.361 0.6657,0.542 1.1963,0.542c0.4394,0 0.7959,-0.12 1.0693,-0.361c0.2734,-0.244 0.4102,-0.55 0.4102,-0.918l0,-0.484l-1.4746,0l0,-0.918l2.6025,0l0,1.343c0,0.208 -0.0277,0.417 -0.083,0.625c-0.0554,0.208 -0.1481,0.418 -0.2783,0.63c-0.1302,0.208 -0.293,0.392 -0.4883,0.552c-0.1953,0.159 -0.446,0.289 -0.752,0.39c-0.3027,0.098 -0.6412,0.147 -1.0156,0.147c-0.9147,0 -1.6048,-0.275 -2.0703,-0.825c-0.4655,-0.55 -0.6983,-1.293 -0.6983,-2.227zm7.3918,2.92l0,-6.665l4.209,0l0,0.986l-3.0322,0l0,1.831l2.8516,0l0,0.933l-2.8516,0l0,1.929l3.0322,0l0,0.986l-4.209,0zm5.6096,-5.664l0,-1.001l5.044,0l0,1.001l-1.9385,0l0,5.664l-1.1719,0l0,-5.664l-1.9336,0zm9.4467,5.664l0,-6.665l1.1816,0l0,6.665l-1.1816,0zm2.8068,-5.664l0,-1.001l5.044,0l0,1.001l-1.9385,0l0,5.664l-1.1719,0l0,-5.664l-1.9336,0zm9.183,2.803l0,-0.889c0,-0.944 0.2507,-1.688 0.752,-2.231c0.5013,-0.544 1.1849,-0.816 2.0508,-0.816c0.8659,0 1.5478,0.272 2.0459,0.816c0.498,0.543 0.747,1.287 0.747,2.231l0,0.889c0,0.937 -0.2506,1.671 -0.7519,2.202c-0.4981,0.527 -1.1833,0.791 -2.0557,0.791c-0.8691,0 -1.5511,-0.264 -2.0459,-0.791c-0.4948,-0.528 -0.7422,-1.262 -0.7422,-2.202zm1.1914,0.005c0,0.651 0.1465,1.145 0.4395,1.484c0.293,0.335 0.682,0.503 1.167,0.503c0.4818,0 0.8691,-0.168 1.1621,-0.503c0.293,-0.339 0.4395,-0.833 0.4395,-1.484l0,-0.904c0,-0.654 -0.1482,-1.157 -0.4444,-1.509c-0.293,-0.351 -0.6787,-0.527 -1.1572,-0.527c-0.4818,0 -0.8708,0.176 -1.167,0.527c-0.293,0.352 -0.4395,0.855 -0.4395,1.509l0,0.904zm6.4055,2.856l0,-6.665l1.0205,0l3.0615,4.663l0.0391,0l0,-4.663l1.1231,0l0,6.665l-1.0108,0l-3.0713,-4.678l-0.0342,0l0,4.678l-1.1279,0z" id="GET IT ON_3"/>
    </g>
   </g>
  </g>
  <g stroke="null" id="svg_5">
   <path stroke="null" fill="#ea3700" d="m12.39941,123.81039c3.85186,-1.75229 7.8659,-1.46783 12.01529,0.51631l3.23632,-11.35889c-3.86559,-1.91485 -7.82967,-2.75549 -12.08969,-0.36879l-3.16192,11.21138z" id="svg_5"/>
   <path stroke="null" fill="#7dc800" d="m28.56671,112.99453c5.46845,2.47402 9.36915,1.59959 12.31442,0.80241l-3.15444,10.8884c-5.69446,2.74616 -9.09787,0.98324 -12.43351,-0.25815l3.27352,-11.43267l0,0.00001z" id="svg_6"/>
   <path stroke="null" fill="#ffc700" d="m25.0328,125.45982c3.66029,1.52954 7.51233,2.4888 12.35008,0.51631l-3.9059,12.39152c-4.61372,2.29274 -8.12976,1.52261 -12.05248,-0.29504l3.60831,-12.6128l0,0.00001z" id="svg_7"/>
   <path stroke="null" fill="#4342e7" d="m8.40483,137.26127c3.89873,-2.01433 7.91839,-1.57074 12.01529,0.44255l3.60831,-12.64969c-1.66251,-0.75297 -5.48297,-2.82092 -12.12688,-0.14751l-3.49671,12.35465z" id="svg_8"/>
  </g>
  <text font-weight="bold" xml:space="preserve" text-anchor="start" font-family="Georgia, Times, 'Times New Roman', serif" font-size="20" id="svg_1" y="139.95313" x="49.5" stroke-width="0" fill="white">Windows</text>
 </g>
</svg>